<?xml version="1.0" encoding="UTF-8" standalone="no"?><!-- Generator: Gravit.io --><svg xmlns="http://www.w3.org/2000/svg" xmlns:xlink="http://www.w3.org/1999/xlink" style="isolation:isolate" viewBox="0 0 2342 731" width="2342pt" height="731pt"><defs><clipPath id="_clipPath_ySdiWE3PAEkcemuhCmnCSTJ9S1jefPtS"><rect width="2342" height="731"/></clipPath></defs><g clip-path="url(#_clipPath_ySdiWE3PAEkcemuhCmnCSTJ9S1jefPtS)"><rect x="-376" y="-216" width="1500" height="1500" transform="matrix(1,0,0,1,0,0)" fill="none"/><rect x="-376" y="9" width="1500" height="1050" transform="matrix(1,0,0,1,0,0)" fill="none"/><path d=" M 40.197 366.419 C 40.197 553.073 191.511 704.386 378.165 704.386 L 378.165 704.386 C 564.819 704.386 716.132 553.073 716.132 366.419 L 716.132 366.419 C 716.132 179.765 564.819 28.451 378.165 28.451 L 378.165 28.451 C 191.511 28.451 40.197 179.765 40.197 366.419 Z " fill="rgb(96,190,140)"/><path d=" M 99.118 385.794 C 98.872 378.84 98.497 371.889 98.395 364.935 C 97.949 334.929 102.522 305.687 111.664 277.109 C 126.925 229.423 153.675 189.15 190.409 155.449 C 219.154 129.073 252.189 109.739 289.21 97.352 C 336.415 81.558 384.293 78.673 433.224 88.486 C 500.229 101.922 554.305 135.975 597.425 188.415 C 601.994 193.969 605.81 199.992 610.016 205.766 C 613.927 211.141 615.12 217.017 611.746 223.082 C 608.396 229.09 603.312 231.812 596.16 231.793 C 529.603 231.649 463.049 231.706 396.495 231.721 C 394.038 231.721 391.573 231.872 389.116 231.952 C 388.723 232.001 388.321 232.05 387.928 232.099 C 364.066 232.656 341.552 238.198 320.734 250.12 C 289.1 268.227 267.828 294.792 257.004 329.454 C 252.616 343.496 249.682 357.984 246.082 372.272 C 241.91 388.126 237.64 403.951 233.578 419.832 C 223.262 460.162 213.135 500.534 202.731 540.841 C 198.733 556.328 182.019 560.659 170.469 549.62 C 153.035 532.963 141.523 512.198 129.969 491.482 C 111.638 458.625 103.249 422.819 99.118 385.794 Z " fill="rgb(0,1,0)"/><path d=" M 359.515 375.96 C 362.737 364.573 366.178 353.461 373.803 343.834 C 384.884 329.838 399.558 323.073 416.62 322.959 C 484.389 322.505 552.162 322.641 619.931 322.838 C 641.359 322.899 659.205 342.986 657.759 361.817 C 657.433 366.095 657.872 370.429 657.959 374.734 C 656.04 406.25 649.987 436.896 638.099 466.225 C 619.522 512.066 590.883 550.458 552.238 581.373 C 520.858 606.469 485.642 623.894 446.717 633.635 C 405.055 644.061 363.123 644.826 321.007 636.244 C 314.385 634.896 307.98 632.662 301.18 632.015 C 296.104 631.53 293.999 629.089 295.521 623.319 C 302.07 598.522 308.18 573.612 314.446 548.743 C 317.202 537.802 320.106 526.895 322.631 515.898 C 323.759 510.995 325.83 509.019 331.3 509.064 C 365.399 509.348 399.501 509.212 433.603 509.185 C 459.634 509.17 478.43 496.776 488.179 472.781 C 494.804 456.476 502.546 440.625 507.763 423.737 C 509.985 416.548 510.435 416.676 502.656 416.676 C 453.762 416.673 404.869 416.62 355.976 416.752 C 351.073 416.767 348.972 416.423 350.736 410.517 C 354.14 399.141 356.642 387.496 359.515 375.96 Z " fill="rgb(0,1,0)"/><path d=" M 922 442.777 L 922 295.063 C 922 287.556 928.008 281.298 935.773 281.298 L 936.019 281.298 L 936.522 281.298 L 1017.636 281.298 C 1024.897 281.298 1031.409 287.556 1031.409 295.063 C 1031.409 302.824 1024.897 309.086 1017.636 309.086 L 949.788 309.086 L 949.788 354.901 L 1008.126 354.901 C 1015.634 354.901 1021.891 361.413 1021.891 368.674 C 1021.891 376.435 1015.634 382.693 1008.126 382.693 L 949.788 382.693 L 949.788 442.777 C 949.788 450.288 943.53 456.549 935.773 456.549 C 928.008 456.549 922 450.288 922 442.777 Z " fill="rgb(0,1,0)"/><path d=" M 1147.816 344.639 C 1147.816 351.65 1142.057 357.908 1134.546 357.908 C 1128.788 357.908 1123.78 359.407 1119.525 362.663 C 1114.77 365.669 1111.014 369.924 1108.008 374.683 C 1102 382.693 1098.994 392.203 1097.745 395.709 L 1097.745 443.281 C 1097.745 450.542 1091.483 456.55 1083.972 456.55 C 1076.715 456.55 1070.703 450.542 1070.703 443.281 L 1070.703 344.639 C 1070.703 337.378 1076.715 331.62 1083.972 331.62 C 1091.483 331.62 1097.745 337.378 1097.745 344.639 L 1097.745 346.392 C 1099.244 344.639 1101.247 342.636 1103 341.383 C 1111.264 335.875 1122.027 331.37 1134.546 331.62 C 1142.057 331.62 1147.816 337.378 1147.816 344.639 Z " fill="rgb(0,1,0)"/><path d=" M 1186.618 381.691 L 1257.469 381.691 C 1254.966 371.674 1242.197 356.905 1220.417 355.152 C 1199.134 356.156 1188.621 371.427 1186.618 381.691 Z  M 1159.33 393.957 C 1159.576 359.907 1186.118 331.37 1220.417 331.37 C 1252.96 331.37 1278.748 355.652 1280.755 389.451 L 1280.755 390.705 C 1280.755 391.204 1280.755 392.457 1280.501 392.957 C 1279.752 398.965 1274.493 402.97 1267.482 402.97 L 1187.871 402.97 C 1189.12 408.732 1191.873 415.236 1196.381 419.495 C 1201.636 425.503 1211.653 430.012 1220.417 430.762 C 1229.427 431.511 1240.194 429.255 1246.452 424.504 C 1251.71 418.996 1261.974 419.745 1265.229 423.751 C 1268.485 427.256 1270.988 434.767 1265.229 440.022 C 1252.96 451.292 1238.191 456.547 1220.417 456.547 C 1186.118 456.297 1159.576 428.006 1159.33 393.957 Z " fill="rgb(0,1,0)"/><path d=" M 1339.076 381.691 L 1409.927 381.691 C 1407.424 371.674 1394.655 356.905 1372.875 355.152 C 1351.592 356.156 1341.078 371.427 1339.076 381.691 Z  M 1311.788 393.957 C 1312.034 359.907 1338.576 331.37 1372.875 331.37 C 1405.421 331.37 1431.206 355.652 1433.213 389.451 L 1433.213 390.705 C 1433.213 391.204 1433.213 392.457 1432.959 392.957 C 1432.21 398.965 1426.951 402.97 1419.94 402.97 L 1340.329 402.97 C 1341.578 408.732 1344.33 415.236 1348.839 419.495 C 1354.098 425.503 1364.111 430.012 1372.875 430.762 C 1381.885 431.511 1392.652 429.255 1398.91 424.504 C 1404.168 418.996 1414.432 419.745 1417.687 423.751 C 1420.943 427.256 1423.449 434.767 1417.687 440.022 C 1405.421 451.292 1390.649 456.547 1372.875 456.547 C 1338.576 456.297 1312.034 428.006 1311.788 393.957 Z " fill="rgb(0,1,0)"/><path d=" M 1465.858 366.669 C 1465.858 316.345 1507.418 276.288 1558.242 276.288 C 1579.518 276.288 1599.799 283.549 1615.32 295.815 C 1621.832 300.574 1622.831 309.837 1618.077 316.099 C 1613.322 322.107 1604.054 323.36 1597.8 318.348 C 1587.029 310.087 1573.261 304.829 1558.242 304.829 C 1540.215 304.829 1524.443 311.59 1513.177 323.106 C 1501.407 334.373 1494.399 349.645 1494.399 366.669 C 1494.399 383.19 1501.407 398.462 1513.177 409.733 C 1524.443 421.245 1540.215 428.006 1558.242 428.006 C 1570.758 428.006 1582.524 424.251 1592.538 418.493 L 1592.538 384.194 L 1556.736 384.194 C 1548.979 384.194 1542.467 377.682 1542.467 369.921 C 1542.467 361.911 1548.979 355.903 1556.736 355.903 L 1606.06 355.903 L 1606.31 355.903 L 1606.56 355.903 C 1614.571 355.903 1621.082 361.911 1621.082 369.921 L 1621.082 425.254 C 1621.082 427.007 1620.579 428.006 1620.329 429.509 C 1620.079 430.009 1620.079 430.263 1619.829 430.762 L 1619.829 431.012 C 1619.08 433.265 1617.577 435.268 1615.071 437.02 C 1599.299 449.286 1579.518 456.547 1558.242 456.547 C 1507.418 456.547 1465.858 416.744 1465.858 366.669 Z " fill="rgb(0,1,0)"/><path d=" M 1722.072 456.548 C 1693.531 456.548 1669.999 433.016 1669.999 404.471 L 1669.999 344.637 C 1669.999 337.626 1676.003 331.372 1683.264 331.372 C 1690.775 331.372 1696.537 337.626 1696.537 344.637 L 1696.537 404.471 C 1696.537 418.743 1707.8 430.01 1722.072 430.01 C 1736.595 430.01 1748.111 418.743 1748.361 404.471 L 1748.361 344.637 C 1748.361 337.626 1753.869 331.372 1761.38 331.372 C 1768.388 331.372 1774.899 337.626 1774.899 344.637 L 1774.899 404.471 C 1774.899 433.016 1750.863 456.548 1722.072 456.548 Z " fill="rgb(0,1,0)"/><path d=" M 1853.251 345.389 L 1853.251 443.028 C 1853.251 450.539 1847.493 456.547 1839.732 456.547 C 1832.217 456.547 1826.209 450.539 1826.209 443.028 L 1826.209 345.389 C 1826.209 337.379 1832.217 331.617 1839.732 331.617 C 1847.493 331.617 1853.251 337.379 1853.251 345.389 Z  M 1853.251 300.07 C 1853.251 307.585 1847.493 313.842 1839.732 313.842 C 1832.217 313.842 1826.209 307.585 1826.209 300.07 L 1826.209 294.815 C 1826.209 287.304 1832.217 281.296 1839.732 281.296 C 1847.493 281.296 1853.251 287.304 1853.251 294.815 L 1853.251 300.07 Z " fill="rgb(0,1,0)"/><path d=" M 1948.882 358.658 C 1939.868 358.658 1931.607 362.414 1925.346 368.921 C 1919.088 375.179 1915.336 384.193 1915.336 394.21 C 1915.336 403.72 1919.088 412.734 1925.346 418.996 C 1931.607 425.503 1939.868 429.255 1948.882 429.255 C 1958.142 429.255 1966.153 425.503 1972.414 418.996 C 1978.672 412.734 1982.431 403.72 1982.431 394.21 C 1982.431 384.193 1978.672 375.179 1972.414 368.921 C 1966.153 362.414 1958.142 358.658 1948.882 358.658 Z  M 2009.719 443.028 C 2009.719 450.289 2003.708 456.547 1996.2 456.547 C 1989.439 456.547 1984.181 451.792 1982.927 445.784 C 1973.414 452.292 1961.402 456.547 1948.882 456.547 C 1915.083 456.547 1888.045 428.006 1888.045 394.21 C 1888.045 359.907 1915.083 331.37 1948.882 331.37 C 1961.148 331.37 1973.164 335.376 1982.431 341.883 L 1982.431 294.815 C 1982.431 287.558 1988.436 281.296 1996.2 281.296 C 2003.708 281.296 2009.719 287.558 2009.719 294.815 L 2009.719 393.957 L 2009.719 394.21 L 2009.719 443.028 Z " fill="rgb(0,1,0)"/><path d=" M 2076.304 381.691 L 2147.155 381.691 C 2144.652 371.674 2131.883 356.905 2110.103 355.152 C 2088.82 356.156 2078.303 371.427 2076.304 381.691 Z  M 2049.012 393.957 C 2049.262 359.907 2075.801 331.37 2110.103 331.37 C 2142.646 331.37 2168.435 355.652 2170.437 389.451 L 2170.437 390.705 C 2170.437 391.204 2170.437 392.457 2170.187 392.957 C 2169.438 398.965 2164.179 402.97 2157.168 402.97 L 2077.553 402.97 C 2078.806 408.732 2081.559 415.236 2086.068 419.495 C 2091.326 425.503 2101.336 430.012 2110.103 430.762 C 2119.114 431.511 2129.88 429.255 2136.138 424.504 C 2141.393 418.996 2151.66 419.745 2154.916 423.751 C 2158.171 427.256 2160.674 434.767 2154.916 440.022 C 2142.646 451.292 2127.878 456.547 2110.103 456.547 C 2075.801 456.297 2049.262 428.006 2049.012 393.957 Z " fill="rgb(0,1,0)"/><path d=" M 2204.226 420.746 C 2208.731 414.738 2217.498 413.989 2223.003 418.743 C 2229.514 424.252 2240.777 430.01 2250.541 429.76 C 2257.302 429.76 2263.56 427.508 2267.565 425.005 C 2271.071 421.999 2272.074 419.497 2272.074 417.494 C 2272.074 416.241 2271.821 415.741 2271.325 414.988 C 2271.071 414.238 2270.071 413.235 2268.069 411.986 C 2264.563 409.48 2257.052 406.727 2248.038 404.975 L 2247.788 404.975 C 2240.028 403.475 2232.517 401.469 2226.005 398.463 C 2219.247 395.211 2213.239 390.702 2208.731 383.941 C 2205.978 379.44 2204.475 373.931 2204.475 368.169 C 2204.475 356.653 2210.987 346.89 2219.247 340.632 C 2228.012 334.624 2238.528 331.372 2250.041 331.372 C 2267.315 331.372 2279.581 339.628 2287.592 345.137 C 2293.604 349.142 2295.357 357.406 2291.601 363.664 C 2287.592 369.672 2279.335 371.429 2273.077 367.17 C 2265.063 361.911 2258.052 357.906 2250.041 357.906 C 2243.783 357.906 2238.275 359.909 2235.023 362.415 C 2231.763 364.668 2231.014 366.92 2231.014 368.169 C 2231.014 369.173 2231.014 369.422 2231.513 370.176 C 2231.763 370.672 2232.517 371.675 2234.273 372.678 C 2237.525 374.931 2244.037 377.183 2252.547 378.686 L 2252.797 378.936 L 2253.047 378.936 C 2261.307 380.439 2269.068 382.692 2276.329 386.197 C 2283.091 389.199 2289.848 393.958 2294.104 400.965 C 2297.109 405.978 2298.862 411.732 2298.862 417.494 C 2298.862 429.76 2292.105 440.023 2283.091 446.535 C 2274.077 452.793 2262.81 456.548 2250.541 456.548 C 2231.014 456.298 2215.992 447.284 2205.978 439.274 C 2200.47 434.765 2199.72 426.254 2204.226 420.746 Z " fill="rgb(0,1,0)"/><line x1="-309.06" y1="475.41" x2="-309.485" y2="464.753"/></g></svg>